# Blender v2.83.1 OBJ File: ''
# www.blender.org
mtllib throw_box_pink.mtl
o Plane_Plane.004
v -0.202500 0.230000 0.157500
v 0.202500 0.230000 0.157500
v -0.202500 0.230000 -0.157500
v 0.202500 0.230000 -0.157500
v -0.202500 0.230000 -0.157500
v -0.202500 0.230000 0.157500
v 0.202500 0.230000 0.157500
v 0.202500 0.230000 -0.157500
v -0.197374 0.230000 -0.152319
v -0.197374 0.230000 0.152319
v 0.197374 0.230000 0.152319
v 0.197374 0.230000 -0.152319
v -0.182315 0.000000 -0.139990
v -0.182315 0.000000 0.139990
v 0.182315 0.000000 0.139990
v 0.182315 0.000000 -0.139990
v 0.178088 0.004537 0.135718
v -0.178088 0.004537 0.135718
v -0.178088 0.004537 -0.135718
v 0.178088 0.004537 -0.135718
vt 1.000000 0.000000
vt 1.000000 0.000000
vt 1.000000 1.000000
vt 0.000000 0.000000
vt 0.000000 0.000000
vt 1.000000 0.000000
vt 1.000000 1.000000
vt 0.000000 1.000000
vt 0.000000 1.000000
vt 0.000000 1.000000
vt 1.000000 1.000000
vt 0.000000 0.000000
vt 0.000000 1.000000
vt 1.000000 0.000000
vt 1.000000 1.000000
vt 0.000000 0.000000
vt 1.000000 0.000000
vt 0.000000 1.000000
vt 0.000000 0.000000
vt 1.000000 1.000000
vn 0.0000 1.0000 0.0000
vn 0.0000 0.0000 1.0000
vn 0.0000 0.0734 0.9973
vn 0.0000 0.0734 -0.9973
vn -0.9964 0.0852 0.0000
vn 0.9964 0.0852 0.0000
vn 0.9962 -0.0874 0.0000
vn -0.9962 -0.0874 0.0000
vn 0.0000 -1.0000 0.0000
vn 0.0000 -0.0759 -0.9971
vn 0.0000 -0.0759 0.9971
usemtl Material.001
s off
f 11/1/1 7/2/1 8/3/1
f 6/4/2 1/5/2 2/6/2
f 7/2/2 2/6/2 4/7/2
f 5/8/2 3/9/2 1/5/2
f 8/3/2 4/7/2 3/9/2
f 9/10/1 5/8/1 6/4/1
f 12/11/1 8/3/1 5/8/1
f 10/12/1 6/4/1 7/2/1
f 12/11/3 9/10/3 19/13/3
f 10/12/4 11/1/4 17/14/4
f 11/1/5 12/11/5 20/15/5
f 9/10/6 10/12/6 18/16/6
f 4/7/7 2/6/7 15/17/7
f 1/5/8 3/9/8 13/18/8
f 14/19/9 13/18/9 16/20/9
f 3/9/10 4/7/10 16/20/10
f 17/14/1 20/15/1 19/13/1
f 2/6/11 1/5/11 14/19/11
f 11/1/1 8/3/1 12/11/1
f 6/4/2 2/6/2 7/2/2
f 7/2/2 4/7/2 8/3/2
f 5/8/2 1/5/2 6/4/2
f 8/3/2 3/9/2 5/8/2
f 9/10/1 6/4/1 10/12/1
f 12/11/1 5/8/1 9/10/1
f 10/12/1 7/2/1 11/1/1
f 12/11/3 19/13/3 20/15/3
f 10/12/4 17/14/4 18/16/4
f 11/1/5 20/15/5 17/14/5
f 9/10/6 18/16/6 19/13/6
f 4/7/7 15/17/7 16/20/7
f 1/5/8 13/18/8 14/19/8
f 14/19/9 16/20/9 15/17/9
f 3/9/10 16/20/10 13/18/10
f 17/14/1 19/13/1 18/16/1
f 2/6/11 14/19/11 15/17/11
