# Blender v2.83.1 OBJ File: ''
# www.blender.org
mtllib dt_box_plexi.mtl
o case11.012_Cube.065
v 0.075000 -0.117500 0.117500
v 0.075000 0.117500 0.117500
v -0.075000 -0.117500 0.117500
v -0.075000 0.117500 0.117500
v 0.075000 -0.117500 -0.117500
v 0.075000 0.117500 -0.117500
v -0.075000 -0.117500 -0.117500
v -0.075000 0.117500 -0.117500
v 0.075000 -0.099991 0.099991
v 0.075000 0.099991 0.099991
v 0.075000 0.099991 -0.099991
v 0.075000 -0.099991 -0.099991
v -0.075000 0.099995 0.099995
v -0.075000 -0.099995 0.099995
v -0.075000 -0.099995 -0.099995
v -0.075000 0.099995 -0.099995
v 0.149865 -0.000010 -0.000797
v 0.149865 -0.000010 -0.000797
v 0.149865 -0.000010 -0.000797
v 0.075013 0.117499 -0.117498
v 0.075013 0.117499 -0.047499
v 0.075013 0.047500 -0.117498
v 0.075013 0.047500 -0.047499
v 0.078013 0.047500 -0.117498
v 0.078013 0.117499 -0.117498
v 0.078013 0.117499 -0.047499
v 0.078013 0.047500 -0.047499
v -0.095556 0.117499 0.047487
v -0.095556 0.117499 0.117486
v -0.095556 0.047500 0.047487
v -0.095556 0.047500 0.117486
v -0.092556 0.047500 0.047487
v -0.092556 0.117499 0.047487
v -0.092556 0.117499 0.117486
v -0.092556 0.047500 0.117486
v -0.092500 -0.117500 0.117500
v -0.092500 0.117500 0.117500
v -0.092500 -0.117500 -0.117500
v -0.092500 0.117500 -0.117500
v 0.074427 0.048577 -0.048524
v 0.074427 0.099206 -0.048524
v 0.004046 0.048577 -0.048524
v 0.004046 0.099206 -0.048524
v 0.074427 0.048577 -0.099153
v 0.074427 0.099206 -0.099153
v 0.004046 0.048577 -0.099153
v 0.004046 0.099206 -0.099153
vt 0.383680 0.298498
vt 0.279514 0.649249
vt 0.279514 0.298498
vt 0.163194 0.649249
vt 0.267361 0.298498
vt 0.267361 0.649249
vt 0.012159 0.324618
vt 0.000000 0.000000
vt 0.012159 0.026133
vt 0.175347 0.649249
vt 0.279514 1.000000
vt 0.175347 1.000000
vt 0.383680 1.000000
vt 0.279514 0.649249
vt 0.383680 0.649249
vt 0.000000 1.000000
vt 0.104167 0.701508
vt 0.104167 0.999994
vt 0.163194 0.350751
vt 0.000000 0.350751
vt 0.151036 0.026133
vt 0.163194 0.000000
vt 0.500000 0.596990
vt 0.395833 0.298498
vt 0.500000 0.298504
vt 0.406244 0.298498
vt 0.302077 0.000006
vt 0.406244 0.000000
vt 0.500000 0.947747
vt 0.395833 0.649255
vt 0.500000 0.649249
vt 0.152777 0.805980
vt 0.104167 0.910458
vt 0.104167 0.805980
vt 0.159028 0.805980
vt 0.156944 0.701502
vt 0.159028 0.701502
vt 0.161111 0.805980
vt 0.159028 0.805980
vt 0.154861 0.805980
vt 0.152777 0.701502
vt 0.154861 0.701502
vt 0.161111 0.910458
vt 0.159028 0.910458
vt 0.454854 0.104478
vt 0.406244 0.208956
vt 0.406244 0.104478
vt 0.154861 0.910458
vt 0.152777 0.805980
vt 0.154861 0.805980
vt 0.161111 0.701502
vt 0.163194 0.805980
vt 0.161111 0.805980
vt 0.156944 0.805980
vt 0.154861 0.701502
vt 0.156944 0.701502
vt 0.163194 0.910458
vt 0.161111 0.805980
vt 0.163194 0.805980
vt 0.383680 0.649249
vt 0.163194 0.298498
vt 0.279514 0.649249
vt 0.279514 1.000000
vt 0.000000 0.701502
vt 0.151036 0.324618
vt 0.395833 0.596996
vt 0.302077 0.298492
vt 0.395833 0.947741
vt 0.152777 0.910458
vt 0.156944 0.805980
vt 0.161111 0.701502
vt 0.152777 0.805980
vt 0.454854 0.208956
vt 0.152777 0.910458
vt 0.163194 0.701502
vt 0.154861 0.805980
vt 0.161111 0.910458
vt 0.625000 0.000000
vt 0.375000 0.250000
vt 0.375000 0.000000
vt 0.625000 0.250000
vt 0.375000 0.500000
vt 0.625000 0.500000
vt 0.375000 0.750000
vt 0.625000 0.750000
vt 0.375000 1.000000
vt 0.125000 0.750000
vt 0.125000 0.500000
vt 0.875000 0.750000
vt 0.625000 1.000000
vt 0.875000 0.500000
vt 0.603263 0.768275
vt 0.371122 0.976360
vt 0.371122 0.768275
vt 0.605856 0.764065
vt 0.361955 0.980975
vt 0.361955 0.764065
vt 0.603263 0.976360
vt 0.605856 0.980975
vt 0.279514 0.649249
vt 0.395833 1.000000
vt 0.163194 0.649249
vt 0.163194 0.000000
vt 0.302077 0.298498
vt 0.163194 0.298498
vt 0.395833 0.649249
vt 0.000000 0.701502
vt 0.163194 0.350751
vt 0.163194 0.701502
vt 0.279514 0.298498
vt 0.395833 0.649249
vt 0.163194 1.000000
vt 0.302077 0.000000
vt 0.395833 0.298498
vt 0.000000 0.350751
vn 0.0000 0.0000 1.0000
vn -0.0000 0.0000 -1.0000
vn 1.0000 0.0000 -0.0000
vn 0.0000 -1.0000 0.0000
vn 0.0000 1.0000 0.0000
vn -1.0000 0.0000 0.0000
usemtl carpet_beige.001
s off
f 4/1/1 1/2/1 2/3/1
f 6/4/2 7/5/2 8/6/2
f 12/7/3 6/8/3 11/9/3
f 7/10/4 1/11/4 3/12/4
f 4/13/5 6/14/5 8/15/5
f 16/16/1 12/17/1 11/18/1
f 12/7/3 1/19/3 5/20/3
f 1/19/3 10/21/3 2/22/3
f 2/22/3 11/9/3 6/8/3
f 10/23/4 16/24/4 11/25/4
f 13/26/2 9/27/2 14/28/2
f 14/29/5 12/30/5 15/31/5
f 22/32/6 21/33/6 20/34/6
f 20/35/2 24/36/2 22/37/2
f 22/37/4 27/38/4 23/39/4
f 21/40/5 25/41/5 20/42/5
f 23/39/1 26/43/1 21/44/1
f 34/45/3 32/46/3 33/47/3
f 28/48/2 32/49/2 30/50/2
f 30/51/4 35/52/4 31/53/4
f 29/54/5 33/55/5 28/56/5
f 31/57/1 34/58/1 29/59/1
f 4/1/1 3/60/1 1/2/1
f 6/4/2 5/61/2 7/5/2
f 12/7/3 5/20/3 6/8/3
f 7/10/4 5/62/4 1/11/4
f 4/13/5 2/63/5 6/14/5
f 16/16/1 15/64/1 12/17/1
f 12/7/3 9/65/3 1/19/3
f 1/19/3 9/65/3 10/21/3
f 2/22/3 10/21/3 11/9/3
f 10/23/4 13/66/4 16/24/4
f 13/26/2 10/67/2 9/27/2
f 14/29/5 9/68/5 12/30/5
f 22/32/6 23/69/6 21/33/6
f 20/35/2 25/70/2 24/36/2
f 22/37/4 24/71/4 27/38/4
f 21/40/5 26/72/5 25/41/5
f 23/39/1 27/38/1 26/43/1
f 34/45/3 35/73/3 32/46/3
f 28/48/2 33/74/2 32/49/2
f 30/51/4 32/75/4 35/52/4
f 29/54/5 34/76/5 33/55/5
f 31/57/1 35/77/1 34/58/1
f 41/78/1 42/79/1 40/80/1
f 43/81/6 46/82/6 42/79/6
f 47/83/2 44/84/2 46/82/2
f 45/85/3 40/86/3 44/84/3
f 46/82/4 40/87/4 42/88/4
f 47/83/5 41/89/5 45/85/5
f 41/78/1 43/81/1 42/79/1
f 43/81/6 47/83/6 46/82/6
f 47/83/2 45/85/2 44/84/2
f 45/85/3 41/90/3 40/86/3
f 46/82/4 44/84/4 40/87/4
f 47/83/5 43/91/5 41/89/5
usemtl painted_wood_white.001
f 26/92/3 24/93/3 25/94/3
f 30/95/6 29/96/6 28/97/6
f 26/92/3 27/98/3 24/93/3
f 30/95/6 31/99/6 29/96/6
usemtl plexi
f 7/5/2 39/100/2 8/6/2
f 8/15/5 37/101/5 4/13/5
f 3/12/4 38/102/4 7/10/4
f 16/103/3 14/104/3 15/105/3
f 4/1/1 36/106/1 3/60/1
f 39/107/6 36/108/6 37/109/6
f 7/5/2 38/110/2 39/100/2
f 8/15/5 39/111/5 37/101/5
f 3/12/4 36/112/4 38/102/4
f 16/103/3 13/113/3 14/104/3
f 4/1/1 37/114/1 36/106/1
f 39/107/6 38/115/6 36/108/6
