# Blender v2.83.1 OBJ File: ''
# www.blender.org
mtllib cube_BGCG.mtl
o cube_BGCG
v 0.027500 -0.027500 -0.055000
v 0.027500 -0.027500 0.055000
v -0.027500 -0.027500 0.055000
v -0.027500 -0.027500 -0.055000
v -0.027500 0.027500 0.055000
v -0.027500 0.027500 -0.055000
v 0.027500 0.027500 0.055000
v 0.027500 0.027500 -0.055000
vt 0.143040 0.543972
vt 0.143040 0.537681
vt 0.150476 0.537681
vt 0.150476 0.543972
vt 0.210201 0.516567
vt 0.210638 0.746383
vt 0.000093 0.746415
vt 0.000238 0.516664
vt 0.142146 0.544166
vt 0.142146 0.538619
vt 0.148703 0.538619
vt 0.148703 0.544166
vt 0.210108 0.516400
vt 0.210545 0.746354
vt 0.000411 0.746387
vt 0.000556 0.516497
vt 0.132791 0.539036
vt 0.143575 0.539036
vt 0.143575 0.543598
vt 0.132791 0.543598
vt 0.156429 0.544930
vt 0.136579 0.544930
vt 0.136579 0.536534
vt 0.156429 0.536534
vn 0.0000 -1.0000 0.0000
vn -1.0000 -0.0000 0.0000
vn -0.0000 1.0000 0.0000
vn 1.0000 0.0000 0.0000
vn 0.0000 0.0000 -1.0000
vn 0.0000 0.0000 1.0000
usemtl dt_cubes.022
s 1
f 1/1/1 2/2/1 3/3/1 4/4/1
f 4/5/2 3/6/2 5/7/2 6/8/2
f 6/9/3 5/10/3 7/11/3 8/12/3
f 8/13/4 7/14/4 2/15/4 1/16/4
f 4/17/5 6/18/5 8/19/5 1/20/5
f 5/21/6 3/22/6 2/23/6 7/24/6
