# Blender v2.83.1 OBJ File: ''
# www.blender.org
mtllib cube_GBTB.mtl
o cube_GBTB
v 0.027500 -0.027500 -0.055000
v 0.027500 -0.027500 0.055000
v -0.027500 -0.027500 0.055000
v -0.027500 -0.027500 -0.055000
v -0.027500 0.027499 0.055000
v -0.027500 0.027499 -0.055000
v 0.027500 0.027499 0.055000
v 0.027500 0.027499 -0.055000
vt 0.847814 0.276746
vt 0.847814 0.271912
vt 0.853528 0.271912
vt 0.853528 0.276746
vt 0.994872 0.253710
vt 0.994872 0.483500
vt 0.784642 0.483500
vt 0.784642 0.253710
vt 0.847128 0.276895
vt 0.847128 0.272632
vt 0.852166 0.272632
vt 0.852166 0.276895
vt 0.994779 0.253543
vt 0.994779 0.483472
vt 0.784960 0.483472
vt 0.784960 0.253543
vt 0.839939 0.272953
vt 0.848226 0.272953
vt 0.848226 0.276458
vt 0.839939 0.276458
vt 0.858103 0.277482
vt 0.842849 0.277482
vt 0.842849 0.271030
vt 0.858103 0.271030
vn 0.0000 -1.0000 0.0000
vn -1.0000 -0.0000 0.0000
vn -0.0000 1.0000 0.0000
vn 1.0000 0.0000 0.0000
vn 0.0000 0.0000 -1.0000
vn 0.0000 0.0000 1.0000
usemtl dt_cubes.027
s 1
f 1/1/1 2/2/1 3/3/1 4/4/1
f 4/5/2 3/6/2 5/7/2 6/8/2
f 6/9/3 5/10/3 7/11/3 8/12/3
f 8/13/4 7/14/4 2/15/4 1/16/4
f 4/17/5 6/18/5 8/19/5 1/20/5
f 5/21/6 3/22/6 2/23/6 7/24/6
