# Blender v2.83.1 OBJ File: ''
# www.blender.org
mtllib cube_GGTB.mtl
o cube_GGTB
v 0.027500 -0.027499 -0.055000
v 0.027500 -0.027499 0.055000
v -0.027500 -0.027499 0.055000
v -0.027500 -0.027499 -0.055000
v -0.027500 0.027500 0.055000
v -0.027500 0.027500 -0.055000
v 0.027500 0.027500 0.055000
v 0.027500 0.027500 -0.055000
vt 0.562233 0.285402
vt 0.562233 0.280667
vt 0.567831 0.280667
vt 0.567831 0.285402
vt 0.732832 0.252591
vt 0.732832 0.482324
vt 0.522329 0.482324
vt 0.522329 0.252591
vt 0.561560 0.285548
vt 0.561560 0.281373
vt 0.566496 0.281373
vt 0.566496 0.285548
vt 0.732740 0.252424
vt 0.732740 0.482296
vt 0.522647 0.482296
vt 0.522647 0.252424
vt 0.554517 0.281687
vt 0.562636 0.281687
vt 0.562636 0.285121
vt 0.554517 0.285121
vt 0.572313 0.286124
vt 0.557368 0.286124
vt 0.557368 0.279803
vt 0.572313 0.279803
vn 0.0000 -1.0000 0.0000
vn -1.0000 -0.0000 0.0000
vn -0.0000 1.0000 0.0000
vn 1.0000 0.0000 0.0000
vn 0.0000 0.0000 -1.0000
vn 0.0000 0.0000 1.0000
usemtl dt_cubes.030
s 1
f 1/1/1 2/2/1 3/3/1 4/4/1
f 4/5/2 3/6/2 5/7/2 6/8/2
f 6/9/3 5/10/3 7/11/3 8/12/3
f 8/13/4 7/14/4 2/15/4 1/16/4
f 4/17/5 6/18/5 8/19/5 1/20/5
f 5/21/6 3/22/6 2/23/6 7/24/6
