# Blender v2.83.1 OBJ File: ''
# www.blender.org
mtllib cube_GBTG.mtl
o cube_GBTG
v 0.027500 -0.027500 -0.055000
v 0.027500 -0.027500 0.055000
v -0.027500 -0.027500 0.055000
v -0.027500 -0.027500 -0.055000
v -0.027500 0.027500 0.055000
v -0.027500 0.027500 -0.055000
v 0.027500 0.027500 0.055000
v 0.027500 0.027500 -0.055000
vt 0.380500 0.279092
vt 0.380500 0.272961
vt 0.387748 0.272961
vt 0.387748 0.279092
vt 0.479449 0.254264
vt 0.478985 0.484054
vt 0.268008 0.484092
vt 0.268462 0.254246
vt 0.379629 0.279281
vt 0.379629 0.273875
vt 0.386020 0.273875
vt 0.386020 0.279281
vt 0.479454 0.254259
vt 0.478998 0.484119
vt 0.268004 0.484072
vt 0.268465 0.254250
vt 0.370511 0.274282
vt 0.381022 0.274282
vt 0.381022 0.278728
vt 0.370511 0.278728
vt 0.393550 0.280027
vt 0.374203 0.280027
vt 0.374203 0.271843
vt 0.393550 0.271843
vn 0.0000 -1.0000 0.0000
vn -1.0000 -0.0000 0.0000
vn -0.0000 1.0000 0.0000
vn 1.0000 0.0000 0.0000
vn 0.0000 0.0000 -1.0000
vn 0.0000 0.0000 1.0000
usemtl dt_cubes.028
s 1
f 1/1/1 2/2/1 3/3/1 4/4/1
f 4/5/2 3/6/2 5/7/2 6/8/2
f 6/9/3 5/10/3 7/11/3 8/12/3
f 8/13/4 7/14/4 2/15/4 1/16/4
f 4/17/5 6/18/5 8/19/5 1/20/5
f 5/21/6 3/22/6 2/23/6 7/24/6
