# Blender v2.83.1 OBJ File: ''
# www.blender.org
mtllib cube_GBCG.mtl
o cube_GBCG
v 0.027500 -0.027500 -0.055000
v 0.027500 -0.027500 0.055000
v -0.027500 -0.027500 0.055000
v -0.027500 -0.027500 -0.055000
v -0.027500 0.027500 0.055000
v -0.027500 0.027500 -0.055000
v 0.027500 0.027500 0.055000
v 0.027500 0.027500 -0.055000
vt 0.412311 0.802459
vt 0.412311 0.795280
vt 0.420798 0.795280
vt 0.420798 0.802459
vt 0.465809 0.770472
vt 0.465557 0.999738
vt 0.255849 0.999797
vt 0.256375 0.770523
vt 0.411291 0.802680
vt 0.411291 0.796350
vt 0.418775 0.796350
vt 0.418775 0.802680
vt 0.465908 0.770263
vt 0.465656 0.999703
vt 0.255814 0.999762
vt 0.256340 0.770314
vt 0.400614 0.796826
vt 0.412922 0.796826
vt 0.412922 0.802032
vt 0.400614 0.802032
vt 0.427592 0.803553
vt 0.404937 0.803553
vt 0.404937 0.793971
vt 0.427592 0.793971
vn 0.0000 -1.0000 0.0000
vn -1.0000 -0.0000 0.0000
vn -0.0000 1.0000 0.0000
vn 1.0000 0.0000 0.0000
vn 0.0000 0.0000 -1.0000
vn 0.0000 0.0000 1.0000
usemtl dt_cubes.026
s 1
f 1/1/1 2/2/1 3/3/1 4/4/1
f 4/5/2 3/6/2 5/7/2 6/8/2
f 6/9/3 5/10/3 7/11/3 8/12/3
f 8/13/4 7/14/4 2/15/4 1/16/4
f 4/17/5 6/18/5 8/19/5 1/20/5
f 5/21/6 3/22/6 2/23/6 7/24/6
